<?xml version="1.0" encoding="UTF-8"?>
<svg width="262px" height="87px" viewBox="0 0 262 87" version="1.1" xmlns="http://www.w3.org/2000/svg" xmlns:xlink="http://www.w3.org/1999/xlink">
    <g id="Symbols" stroke="none" stroke-width="1" fill="none" fill-rule="evenodd">
        <g id="logo-light" fill-rule="nonzero">
            <path d="M232.524762,86.9861905 C231.910238,86.9861905 231.371667,86.2128571 231.192143,85.0735714 L223.852381,37.8519048 L217.071905,64.0209524 C216.850952,64.8771429 216.409048,65.4433333 215.911905,65.5054762 C215.414762,65.5538095 214.945238,65.105 214.669048,64.3109524 L209.518095,49.3897619 L196.350714,49.3897619 C195.584286,49.3897619 194.955952,48.1883333 194.955952,46.7038095 C194.955952,45.2192857 195.577381,44.0178571 196.350714,44.0178571 L210.26381,44.0178571 C210.726429,44.0178571 211.161429,44.4666667 211.42381,45.212381 L215.656429,57.4752381 L222.927143,29.3935714 C223.175714,28.392381 223.72119,27.7985714 224.294286,27.9090476 C224.860476,28.0057143 225.34381,28.7583333 225.509524,29.8078571 L232.255476,73.2042857 L239.505476,3.20380952 C239.615952,1.885 240.237381,0.945952381 240.927857,1.05642857 C241.618333,1.1047619 242.184524,2.12666667 242.260476,3.44547619 L244.822143,47.9535714 L248.599048,44.3078571 C248.792381,44.1214286 248.999524,44.0247619 249.213571,44.0247619 L260.344048,44.0247619 C261.110476,44.0247619 261.73881,45.2261905 261.73881,46.7107143 C261.73881,48.1952381 261.117381,49.3966667 260.344048,49.3966667 L249.545,49.3966667 L244.269762,54.4854762 C243.58619,55.1552381 242.74381,54.6235714 242.398571,53.3047619 C242.322619,53.0147619 242.274286,52.7040476 242.253571,52.3795238 L240.458333,21.2321429 L233.878095,84.8457143 C233.75381,86.0540476 233.215238,86.9378571 232.58,86.9930952 L232.524762,86.9861905 L232.524762,86.9861905 Z" id="Path" fill="#446CCD"></path>
            <path d="M0.0138095238,0.876904762 L21.0733333,0.876904762 C25.9964286,0.876904762 29.9252381,2.07142857 32.8459524,4.46738095 C35.7666667,6.86333333 37.2304762,9.90142857 37.2304762,13.5816667 C37.2304762,19.0571429 34.0335714,22.765 27.6328571,24.6983333 C30.8988095,25.1609524 33.5019048,26.5142857 35.4352381,28.7721429 C37.3685714,31.03 38.3352381,33.6745238 38.3352381,36.712619 C38.3352381,40.5792857 36.9197619,43.6519048 34.0888095,45.9304762 C31.2578571,48.2090476 27.3083333,49.3483333 22.2471429,49.3483333 L0.0138095238,49.3483333 L0.0138095238,0.876904762 Z M11.8209524,9.85309524 L11.8209524,20.3483333 L19.5542857,20.3483333 C21.2597619,20.3483333 22.6269048,19.9133333 23.662619,19.0364286 C24.6983333,18.1595238 25.2161905,16.8614286 25.2161905,15.1352381 C25.2161905,13.4090476 24.6983333,12.0971429 23.662619,11.1995238 C22.6269048,10.3019048 21.2597619,9.85309524 19.5542857,9.85309524 L11.8209524,9.85309524 L11.8209524,9.85309524 Z M11.8209524,40.3721429 L20.7280952,40.3721429 C22.3369048,40.3721429 23.6764286,39.8888095 24.7328571,38.9221429 C25.7892857,37.9554762 26.3209524,36.6228571 26.3209524,34.917381 C26.3209524,33.2119048 25.8169048,31.8585714 24.8019048,30.8435714 C23.7869048,29.8285714 22.475,29.3245238 20.8661905,29.3245238 L11.8209524,29.3245238 L11.8209524,40.3721429 L11.8209524,40.3721429 Z" id="Shape" fill="#FFFFFF"></path>
            <path d="M50.9364286,42.7888095 C46.1238095,38.0935714 43.7209524,32.1554762 43.7209524,24.9745238 C43.7209524,17.7935714 46.1238095,11.8692857 50.9364286,7.1947619 C55.7490476,2.5202381 61.6388095,0.186428571 68.612619,0.186428571 C75.5864286,0.186428571 81.4554762,2.5202381 86.2197619,7.1947619 C90.9840476,11.8692857 93.3661905,17.7935714 93.3661905,24.9745238 C93.3661905,32.1554762 90.9702381,38.0935714 86.1852381,42.7888095 C81.4002381,47.4840476 75.5311905,49.8316667 68.5780952,49.8316667 C61.6319048,49.8316667 55.7490476,47.4840476 50.9364286,42.7888095 Z M77.865,35.1245238 C80.1919048,32.5904762 81.3519048,29.2071429 81.3519048,24.9745238 C81.3519048,20.7419048 80.1919048,17.3585714 77.865,14.8245238 C75.5380952,12.2904762 72.4309524,11.0269048 68.5435714,11.0269048 C64.6561905,11.0269048 61.5490476,12.2904762 59.2221429,14.8245238 C56.8952381,17.3585714 55.7352381,20.7419048 55.7352381,24.9745238 C55.7352381,29.2071429 56.8952381,32.5904762 59.2221429,35.1245238 C61.5490476,37.6585714 64.6561905,38.9221429 68.5435714,38.9221429 C72.4378571,38.9221429 75.545,37.6516667 77.865,35.1245238 Z" id="Shape" fill="#FFFFFF"></path>
            <polygon id="Path" fill="#FFFFFF" points="132.51619 0.738809524 144.323333 0.738809524 144.323333 49.3483333 132.51619 49.3483333 112.768571 18.7602381 112.768571 49.3483333 100.961429 49.3483333 100.961429 0.738809524 112.768571 0.738809524 132.51619 31.3269048"></polygon>
            <path d="M185.475714,49.3483333 L182.782857,41.2007143 L165.382857,41.2007143 L162.69,49.3483333 L150.123333,49.3483333 L166.970952,0.738809524 L181.332857,0.738809524 L198.111429,49.3483333 L185.475714,49.3483333 Z M168.351905,32.2245238 L179.81381,32.2245238 L174.082857,14.962619 L168.351905,32.2245238 Z" id="Shape" fill="#FFFFFF"></path>
        </g>
    </g>
</svg>