<?xml version="1.0" encoding="utf-8"?>
<!-- Generator: Adobe Illustrator 22.0.1, SVG Export Plug-In . SVG Version: 6.00 Build 0)  -->
<svg version="1.1" id="Layer_1" xmlns="http://www.w3.org/2000/svg" xmlns:xlink="http://www.w3.org/1999/xlink" x="0px" y="0px"
	 viewBox="0 0 45.2 75.7" style="enable-background:new 0 0 45.2 75.7;" xml:space="preserve">
<style type="text/css">
	.st0{fill:#5EBFD7;}
</style>
<g>
	<g>
		<path class="st0" d="M2.6,54.4c0.3,0,0.6,0,0.8,0.1c0.2,0.1,0.4,0.2,0.5,0.3C4,55,4.1,55.1,4.2,55.3c0,0.2,0.1,0.3,0.1,0.4
			c0,0.3-0.1,0.5-0.2,0.7c-0.2,0.2-0.4,0.3-0.6,0.4v0c0.1,0,0.2,0.1,0.3,0.1c0.1,0,0.3,0.1,0.4,0.2c0.1,0.1,0.2,0.2,0.3,0.4
			c0.1,0.2,0.1,0.4,0.1,0.6c0,0.3-0.1,0.6-0.2,0.8c-0.1,0.2-0.3,0.3-0.5,0.4c-0.2,0.1-0.4,0.2-0.6,0.2c-0.2,0-0.5,0.1-0.7,0.1H0
			v-5.2H2.6z M1.2,56.4h1.1c0.1,0,0.2,0,0.3-0.1c0.1,0,0.1-0.1,0.2-0.1s0.1-0.1,0.1-0.2c0-0.1,0-0.1,0-0.2c0-0.1,0-0.1,0-0.2
			c0-0.1-0.1-0.1-0.1-0.2c0,0-0.1-0.1-0.2-0.1c-0.1,0-0.2,0-0.3,0H1.2V56.4z M1.2,58.6h1.3c0.1,0,0.1,0,0.2,0c0.1,0,0.2,0,0.2-0.1
			c0.1,0,0.1-0.1,0.2-0.2c0-0.1,0.1-0.2,0.1-0.3c0-0.1,0-0.2-0.1-0.3c0-0.1-0.1-0.1-0.2-0.2c-0.1,0-0.2-0.1-0.3-0.1
			c-0.1,0-0.2,0-0.3,0H1.2V58.6z"/>
		<path class="st0" d="M9.2,56.4v1H6.6v1.2h3v1H5.4v-5.2h4.1v1H6.6v1.1H9.2z"/>
		<path class="st0" d="M15.2,56.8v2.8h-0.9V59h0c-0.2,0.3-0.4,0.5-0.6,0.6c-0.3,0.1-0.6,0.2-0.9,0.2c-0.4,0-0.7,0-1-0.1
			c-0.3-0.1-0.5-0.2-0.7-0.4c-0.2-0.1-0.3-0.3-0.5-0.5c-0.1-0.2-0.2-0.4-0.3-0.6c-0.1-0.2-0.1-0.4-0.1-0.6c0-0.2,0-0.4,0-0.5
			c0-0.2,0-0.4,0-0.6c0-0.2,0.1-0.4,0.2-0.6c0.1-0.2,0.2-0.4,0.3-0.6c0.1-0.2,0.3-0.4,0.5-0.5c0.2-0.1,0.4-0.3,0.7-0.3
			c0.3-0.1,0.6-0.1,1-0.1c0.4,0,0.7,0.1,1,0.2c0.3,0.1,0.5,0.2,0.7,0.4s0.3,0.4,0.4,0.6c0.1,0.2,0.2,0.4,0.2,0.7h-1.3
			c0,0,0-0.1,0-0.2c0-0.1-0.1-0.2-0.1-0.3c-0.1-0.1-0.2-0.2-0.3-0.2c-0.1-0.1-0.3-0.1-0.5-0.1c-0.2,0-0.4,0-0.6,0.1
			c-0.2,0.1-0.3,0.2-0.4,0.3c-0.1,0.1-0.2,0.2-0.2,0.4c-0.1,0.1-0.1,0.3-0.1,0.4s0,0.2,0,0.4c0,0.1,0,0.2,0,0.2c0,0.1,0,0.1,0,0.2
			s0,0.2,0,0.3c0,0.1,0.1,0.3,0.1,0.4s0.1,0.3,0.2,0.4c0.1,0.1,0.2,0.2,0.4,0.3c0.2,0.1,0.3,0.1,0.6,0.1c0.1,0,0.3,0,0.4-0.1
			c0.1,0,0.3-0.1,0.4-0.2c0.1-0.1,0.2-0.2,0.3-0.3c0.1-0.1,0.1-0.3,0.1-0.5h-1v-0.9H15.2z"/>
		<path class="st0" d="M19.8,59.6h-3.7v-5.2h1.2v4.2h2.4V59.6z"/>
		<path class="st0" d="M23.3,54.4l2,5.2H24l-0.3-1h-1.9l-0.3,1h-1.3l1.9-5.2H23.3z M23.4,57.7l-0.7-2l-0.7,2H23.4z"/>
		<path class="st0" d="M25.8,54.4h2.7c0.1,0,0.3,0,0.5,0c0.2,0,0.4,0.1,0.6,0.2c0.2,0.1,0.3,0.3,0.5,0.4c0.1,0.2,0.2,0.5,0.2,0.8
			c0,0.2,0,0.4-0.1,0.6c-0.1,0.2-0.1,0.3-0.2,0.4c-0.1,0.1-0.2,0.2-0.3,0.2c-0.1,0.1-0.2,0.1-0.3,0.1v0c0.2,0.1,0.3,0.1,0.4,0.2
			c0.1,0.1,0.2,0.2,0.2,0.3c0,0.1,0.1,0.2,0.1,0.4c0,0.1,0,0.2,0,0.3c0,0.2,0,0.3,0,0.4c0,0.1,0,0.2,0,0.3c0,0.1,0,0.2,0.1,0.2
			s0.1,0.1,0.1,0.2H29c-0.1-0.1-0.1-0.2-0.1-0.2c0-0.1,0-0.2,0-0.3c0-0.1,0-0.2,0-0.3c0-0.1,0-0.3,0-0.5c0-0.2-0.1-0.3-0.1-0.4
			c-0.1-0.1-0.2-0.1-0.2-0.2c-0.1,0-0.2-0.1-0.3-0.1c-0.1,0-0.2,0-0.2,0H27v1.9h-1.2V54.4z M27,56.7h1.1c0.2,0,0.3,0,0.4-0.1
			c0.1,0,0.2-0.1,0.2-0.2c0.1-0.1,0.1-0.1,0.1-0.2c0-0.1,0-0.1,0-0.2c0-0.3-0.1-0.4-0.2-0.5c-0.1-0.1-0.4-0.1-0.6-0.1H27V56.7z"/>
		<path class="st0" d="M34.1,54.4h1.3l-1.8,3.2v2h-1.2v-2l-1.9-3.2h1.4l1.1,2.3L34.1,54.4z"/>
		<path class="st0" d="M38.2,54.4l2,5.2h-1.3l-0.3-1h-1.9l-0.3,1H35l1.9-5.2H38.2z M38.3,57.7l-0.7-2l-0.7,2H38.3z"/>
		<path class="st0" d="M41.9,56.3v3.3h-1.2v-5.2h1.2l2.1,3.2h0v-3.2h1.2v5.2h-1.2L41.9,56.3L41.9,56.3z"/>
		<path class="st0" d="M7.8,63.2L7.8,63.2v0.2v4.2H7.1v-5.2h1l1.6,4.3l1.6-4.3h1v5.2h-0.7v-4.2l0-0.2h0L10,67.6H9.5L7.8,63.2z"/>
		<path class="st0" d="M17.1,64.6v0.6h-2.7V67h3.1v0.6h-3.8v-5.2h3.7V63h-3v1.6H17.1z"/>
		<path class="st0" d="M20.2,62.4c0.1,0,0.2,0,0.4,0c0.2,0,0.3,0,0.5,0.1c0.2,0.1,0.4,0.1,0.6,0.2c0.2,0.1,0.4,0.3,0.5,0.4
			c0.2,0.2,0.3,0.4,0.4,0.7c0.1,0.3,0.1,0.7,0.1,1.1c0,0.4,0,0.8-0.1,1.1c-0.1,0.3-0.2,0.5-0.4,0.7c-0.2,0.2-0.3,0.3-0.5,0.5
			c-0.2,0.1-0.4,0.2-0.6,0.2c-0.2,0.1-0.4,0.1-0.6,0.1c-0.2,0-0.4,0-0.5,0h-1.7v-5.2H20.2z M18.9,67h1c0.7,0,1.2-0.2,1.5-0.5
			c0.3-0.3,0.5-0.8,0.5-1.5c0-0.4-0.1-0.7-0.2-1c-0.1-0.3-0.2-0.5-0.4-0.6c-0.2-0.2-0.4-0.3-0.6-0.3C20.6,63,20.3,63,20.1,63h-1.2
			V67z"/>
		<path class="st0" d="M24.3,62.4v5.2h-0.7v-5.2H24.3z"/>
		<path class="st0" d="M29.9,65.9c0,0.2-0.1,0.4-0.1,0.6c-0.1,0.2-0.2,0.4-0.4,0.6c-0.2,0.2-0.4,0.3-0.7,0.5c-0.3,0.1-0.6,0.2-1,0.2
			c-0.4,0-0.7-0.1-1-0.2c-0.3-0.1-0.6-0.3-0.8-0.5c-0.2-0.2-0.4-0.5-0.5-0.8c-0.1-0.3-0.2-0.7-0.2-1.1c0-0.5,0.1-0.9,0.2-1.2
			c0.1-0.3,0.2-0.6,0.4-0.8c0.2-0.2,0.3-0.4,0.5-0.5c0.2-0.1,0.4-0.2,0.6-0.3c0.2-0.1,0.3-0.1,0.5-0.1c0.1,0,0.3,0,0.3,0
			c0.4,0,0.8,0.1,1,0.2c0.3,0.1,0.5,0.2,0.6,0.4c0.2,0.2,0.3,0.4,0.3,0.6c0.1,0.2,0.1,0.4,0.1,0.6h-0.7c0-0.1,0-0.2-0.1-0.3
			c0-0.1-0.1-0.3-0.2-0.4c-0.1-0.1-0.2-0.2-0.4-0.3c-0.2-0.1-0.4-0.1-0.7-0.1c-0.3,0-0.6,0.1-0.8,0.2c-0.2,0.1-0.4,0.3-0.5,0.5
			c-0.1,0.2-0.2,0.4-0.3,0.7C26,64.5,26,64.8,26,65c0,0.3,0,0.6,0.1,0.8c0.1,0.3,0.2,0.5,0.4,0.7c0.2,0.2,0.3,0.3,0.6,0.4
			c0.2,0.1,0.5,0.2,0.7,0.2c0.2,0,0.4,0,0.6-0.1c0.2-0.1,0.3-0.2,0.5-0.3c0.1-0.1,0.2-0.3,0.3-0.4c0.1-0.2,0.1-0.3,0.1-0.5H29.9z"/>
		<path class="st0" d="M30.9,67.6h-0.7l2-5.2h0.7l2,5.2h-0.7l-0.5-1.3h-2.2L30.9,67.6z M33.4,65.7l-0.9-2.6l-0.9,2.6H33.4z"/>
		<path class="st0" d="M38.8,67.6h-3.3v-5.2h0.7V67h2.6V67.6z"/>
		<path class="st0" d="M13,73.9c0,0.2-0.1,0.4-0.1,0.6c-0.1,0.2-0.2,0.4-0.4,0.6c-0.2,0.2-0.4,0.3-0.7,0.5c-0.3,0.1-0.6,0.2-1,0.2
			c-0.4,0-0.7-0.1-1-0.2S9.2,75.3,9,75c-0.2-0.2-0.4-0.5-0.5-0.8c-0.1-0.3-0.2-0.7-0.2-1.1c0-0.5,0.1-0.9,0.2-1.2
			c0.1-0.3,0.2-0.6,0.4-0.8c0.2-0.2,0.3-0.4,0.5-0.5c0.2-0.1,0.4-0.2,0.6-0.3s0.3-0.1,0.5-0.1c0.1,0,0.3,0,0.3,0
			c0.4,0,0.8,0.1,1,0.2c0.3,0.1,0.5,0.2,0.6,0.4c0.2,0.2,0.3,0.4,0.3,0.6c0.1,0.2,0.1,0.4,0.1,0.6h-0.7c0-0.1,0-0.2-0.1-0.3
			c0-0.1-0.1-0.3-0.2-0.4c-0.1-0.1-0.2-0.2-0.4-0.3c-0.2-0.1-0.4-0.1-0.7-0.1c-0.3,0-0.6,0.1-0.8,0.2c-0.2,0.1-0.4,0.3-0.5,0.5
			c-0.1,0.2-0.2,0.4-0.3,0.7c-0.1,0.3-0.1,0.5-0.1,0.8c0,0.3,0,0.6,0.1,0.8c0.1,0.3,0.2,0.5,0.4,0.7c0.2,0.2,0.3,0.3,0.6,0.4
			c0.2,0.1,0.5,0.2,0.7,0.2c0.2,0,0.4,0,0.6-0.1c0.2-0.1,0.3-0.2,0.5-0.3c0.1-0.1,0.2-0.3,0.3-0.4c0.1-0.2,0.1-0.3,0.1-0.5H13z"/>
		<path class="st0" d="M17.3,72.6v0.6h-2.7V75h3.1v0.6h-3.8v-5.2h3.7V71h-3v1.6H17.3z"/>
		<path class="st0" d="M19.2,75.6h-0.7v-5.2h0.8l2.8,4.1v-4.1h0.7v5.2h-0.8l-2.8-4.1V75.6z"/>
		<path class="st0" d="M23.4,71v-0.6h4.1V71h-1.7v4.6h-0.7V71H23.4z"/>
		<path class="st0" d="M31.7,72.6v0.6h-2.7V75H32v0.6h-3.8v-5.2H32V71h-3v1.6H31.7z"/>
		<path class="st0" d="M32.8,70.4h2.3c0.1,0,0.2,0,0.3,0c0.1,0,0.2,0,0.4,0.1c0.1,0,0.3,0.1,0.4,0.1c0.1,0.1,0.2,0.1,0.3,0.2
			c0.1,0.1,0.2,0.2,0.2,0.4s0.1,0.3,0.1,0.6c0,0.1,0,0.3-0.1,0.4c0,0.1-0.1,0.3-0.2,0.4c-0.1,0.1-0.2,0.2-0.3,0.3
			c-0.1,0.1-0.2,0.1-0.4,0.2v0c0.2,0.1,0.3,0.1,0.4,0.2c0.1,0.1,0.2,0.2,0.2,0.3c0,0.1,0.1,0.2,0.1,0.3c0,0.1,0,0.3,0,0.4
			c0,0.2,0,0.3,0,0.5c0,0.1,0,0.2,0,0.3c0,0.1,0,0.2,0.1,0.2c0,0.1,0.1,0.1,0.1,0.2h-0.7c0-0.1-0.1-0.1-0.1-0.2s0-0.1-0.1-0.2
			c0-0.1,0-0.2,0-0.3c0-0.1,0-0.3,0-0.4c0-0.1,0-0.3,0-0.4c0-0.1-0.1-0.2-0.1-0.4c-0.1-0.1-0.2-0.2-0.3-0.3
			c-0.1-0.1-0.3-0.1-0.5-0.1h-1.5v2.2h-0.7V70.4z M33.5,72.8h1.6c0.1,0,0.2,0,0.3,0c0.1,0,0.2-0.1,0.3-0.1c0.1-0.1,0.2-0.2,0.3-0.3
			c0.1-0.1,0.1-0.3,0.1-0.5c0-0.2,0-0.3-0.1-0.4c-0.1-0.1-0.1-0.2-0.2-0.3c-0.1-0.1-0.2-0.1-0.4-0.1c-0.1,0-0.3,0-0.5,0h-1.5V72.8z"
			/>
	</g>
	<g>
		<path class="st0" d="M34.3,20.6c1.6,1.1,2.6,2.9,2.6,4.9c0,3.3-2.7,6-6,6H17.2V21.1c-1.4,0.1-2.6,0.5-3.8,1.1v13H31
			c5.4,0,9.7-4.4,9.7-9.7c0-2.6-1.1-5-2.8-6.8C36.9,19.5,35.7,20.2,34.3,20.6z"/>
		<path class="st0" d="M17.2,3.8H31c3.3,0,6,2.7,6,6s-2.7,6-6,6h-2.2v3.8H31c5.4,0,9.7-4.4,9.7-9.7S36.3,0.1,31,0.1H13.4v14.7
			c1.2-0.3,2.5-0.5,3.8-0.6V3.8z"/>
		<path class="st0" d="M6.5,30.9c0-6.3,5.1-11.3,11.3-11.3h7.7v-3.8h-8.8v0C9,16.3,2.8,22.9,2.8,30.9C2.8,39.2,9.6,46,17.9,46h15.6
			v-3.8H17.9C11.6,42.2,6.5,37.1,6.5,30.9z"/>
	</g>
</g>
</svg>
