<?xml version="1.0" encoding="UTF-8"?>
<svg version="1.1" xmlns="http://www.w3.org/2000/svg" width="388" height="465">
<path d="M0 0 C1.36237541 -0.00021904 1.36237541 -0.00021904 2.75227356 -0.0004425 C5.72810325 0.00024927 8.70386886 0.00800701 11.6796875 0.01586914 C13.75333624 0.01773593 15.82698542 0.0191586 17.90063477 0.02015686 C23.33885939 0.02396146 28.77705699 0.03377406 34.215271 0.04486084 C39.77241653 0.05511931 45.32956646 0.05966396 50.88671875 0.06469727 C61.7760554 0.07539828 72.66536497 0.09297831 83.5546875 0.11352539 C83.5546875 12.32352539 83.5546875 24.53352539 83.5546875 37.11352539 C78.23988281 37.16250977 72.92507812 37.21149414 67.44921875 37.26196289 C64.03579084 37.29744376 60.62238445 37.33345706 57.20898438 37.37133789 C51.81831334 37.43111271 46.42767158 37.48915877 41.03686523 37.53540039 C-2.51001362 37.91428209 -39.07892109 39.69972831 -72.4453125 71.11352539 C-73.06019531 71.66395508 -73.67507812 72.21438477 -74.30859375 72.78149414 C-93.65311051 90.7919063 -103.00689827 119.0646497 -104.609375 144.74243164 C-105.41083599 170.93563388 -96.07272232 198.63976632 -78.4453125 218.11352539 C-77.77242188 218.92692383 -77.09953125 219.74032227 -76.40625 220.57836914 C-58.309168 241.9329259 -30.86164306 253.9607887 -3.4453125 257.11352539 C2.09676223 257.39928998 7.62865073 257.42500646 13.17700195 257.43237305 C14.80451951 257.44169356 16.43203238 257.45186531 18.05953979 257.46281433 C22.43671968 257.48988935 26.81386779 257.50519622 31.19110894 257.51824236 C35.78085957 257.53397242 40.37054624 257.56073064 44.96025085 257.58627319 C53.63316406 257.63288738 62.30608953 257.669715 70.97906321 257.70294607 C80.86071582 257.74129081 90.74230391 257.79066823 100.62390196 257.84093022 C120.93412191 257.94399162 141.2443694 258.03187921 161.5546875 258.11352539 C161.5546875 270.65352539 161.5546875 283.19352539 161.5546875 296.11352539 C140.27365773 296.18149808 118.99271716 296.23665511 97.71160603 296.26896191 C87.82828673 296.28436762 77.94504016 296.30533526 68.06176758 296.33984375 C59.43784999 296.36994047 50.81398511 296.38914601 42.19001645 296.39579087 C37.63245844 296.39966915 33.07505113 296.40864877 28.51754189 296.43071556 C-15.76047214 296.63678686 -15.76047214 296.63678686 -36.1328125 290.42602539 C-36.98891113 290.17183838 -37.84500977 289.91765137 -38.72705078 289.65576172 C-57.28981897 283.929242 -74.76400406 274.89808761 -89.4453125 262.11352539 C-90.69054687 261.03264648 -90.69054687 261.03264648 -91.9609375 259.92993164 C-94.48976065 257.69200072 -96.975748 255.4166024 -99.4453125 253.11352539 C-100.57259766 252.06745117 -100.57259766 252.06745117 -101.72265625 251.00024414 C-123.02847583 230.51819966 -135.41279304 203.67451368 -141.4453125 175.11352539 C-141.6928125 173.97012695 -141.9403125 172.82672852 -142.1953125 171.64868164 C-148.53650793 136.02349343 -139.94320747 97.59429502 -120.3203125 67.42602539 C-119.0530281 65.63766197 -117.76257421 63.86540297 -116.4453125 62.11352539 C-115.51138672 60.86635742 -115.51138672 60.86635742 -114.55859375 59.59399414 C-89.50039831 27.31822517 -54.4739068 6.50422621 -13.84155273 0.58888245 C-9.21883276 0.02154452 -4.65235021 -0.0198922 0 0 Z " fill="#66CADB" transform="translate(146.4453125,161.886474609375)"/>
<path d="M0 0 C46.71121666 -0.16121214 46.71121666 -0.16121214 66.35351562 -0.1953125 C79.89174492 -0.21900518 93.4298743 -0.24678948 106.96801758 -0.30175781 C116.82976822 -0.34177977 126.69143745 -0.36746923 136.55326706 -0.37635398 C141.76913385 -0.38154283 146.98476785 -0.39363262 152.20055962 -0.42292023 C157.12289085 -0.45033267 162.04489627 -0.45839351 166.9672966 -0.45243073 C168.76140051 -0.45351953 170.55551681 -0.46131804 172.34955406 -0.4768219 C199.60206414 -0.70052422 223.39476879 8.0690407 243.18359375 27.15625 C256.46442295 40.36957244 263.97953785 55.21183087 269 73 C269.4021875 74.39412109 269.4021875 74.39412109 269.8125 75.81640625 C275.32657987 99.67246012 269.31196157 125.96400807 256.73535156 146.55322266 C242.38202229 168.79085811 219.43184851 183.54919828 193.8125 189.3125 C179.99983418 191.59158986 165.94217268 191.08201278 152 191 C152 178.46 152 165.92 152 153 C164.25 152.625 164.25 152.625 168.03222656 152.52197266 C184.27749215 151.95800726 197.79691536 148.82309497 211 139 C212.03125 138.2575 213.0625 137.515 214.125 136.75 C225.56578054 125.8066447 231.77978373 110.73441282 232.375 95 C231.76161746 79.40986052 225.90089796 65.18379323 215 54 C199.84967126 40.89887986 183.65234382 37.88194015 164.24023438 37.79467773 C162.85975868 37.78508354 161.47928583 37.77507259 160.09881592 37.76467896 C156.37215408 37.73779068 152.64547978 37.71669475 148.91877556 37.69667697 C145.0163436 37.67471748 141.11394933 37.64737782 137.21154785 37.62062073 C129.83114737 37.57082791 122.45072582 37.52583968 115.07028437 37.48259836 C105.0904803 37.42384806 95.11072589 37.35763374 85.13096619 37.29184818 C69.42067765 37.18848344 53.7103461 37.09505487 38 37 C38 70.66 38 104.32 38 139 C31.73 139.66 25.46 140.32 19 141 C12.99039626 142.15123369 12.99039626 142.15123369 7.00390625 143.4140625 C4 144 4 144 0 144 C0 96.48 0 48.96 0 0 Z " fill="#66CADB" transform="translate(108,9)"/>
<path d="M0 0 C9.39583381 3.46855547 16.17368104 17.24983634 20.34692383 25.80493164 C31.25650664 49.52776364 31.94423741 75.63959559 23.6875 100.25 C14.64062884 124.14233036 -2.91845402 143.07812465 -25.94213867 153.98095703 C-43.38882982 161.79813346 -60.77903949 163.15576067 -79.65869141 163.11352539 C-81.43354287 163.11324293 -83.20839445 163.11340241 -84.98324585 163.1139679 C-89.77589961 163.11425355 -94.5685281 163.10839435 -99.36117601 163.10139394 C-104.37932232 163.09512175 -109.39746927 163.09455355 -114.4156189 163.09336853 C-123.90677066 163.09026658 -133.39791084 163.08206856 -142.88905752 163.07201904 C-155.72252464 163.05872696 -168.55599496 163.05334881 -181.38946724 163.04751682 C-201.59298683 163.03812788 -221.79648198 163.01820137 -242 163 C-242 120.43 -242 77.86 -242 34 C-227.78915712 28.31566285 -218.7584309 25.34167554 -204 24 C-204 57.33 -204 90.66 -204 125 C-179.1522375 124.93839988 -179.1522375 124.93839988 -154.3046875 124.83984375 C-144.16178634 124.79141846 -134.01898363 124.74693002 -123.87597656 124.72900391 C-116.48657765 124.71592549 -109.09738067 124.6888048 -101.70809555 124.64538693 C-97.80183856 124.62291 -93.89582933 124.60708094 -89.98950195 124.60811615 C-66.69986985 124.6074754 -44.14700861 124.57332587 -26.12890625 107.41796875 C-17.34980836 97.44684656 -10.99447161 85.4253668 -10 72 C-9.93683594 71.31292969 -9.87367188 70.62585938 -9.80859375 69.91796875 C-9.04351404 55.03593436 -14.82664434 40.68026361 -24.5 29.625 C-27.80245561 26.11579167 -31.18231489 22.93668085 -35 20 C-33.42952649 16.85905298 -30.26288378 16.41361762 -27.125 15.25 C-17.19401776 11.41413006 -8.30948535 6.71425463 0 0 Z " fill="#66CADB" transform="translate(350,190)"/>
</svg>
